SplineFontDB: 3.0
FontName: AbhayaLibre-Regular
FullName: AbhayaLibre Regular
FamilyName: AbhayaLibre
Weight: Regular
Copyright: Copyright (c) 1997-2015 Pushpananda Ekanayake (http://isiwara.lk), Copyright (c) 2015 mooniak (http://mooniak.com)\n
UComments: "2015-2-15: Created with FontForge (http://fontforge.org) The  Free Font Editor"
Version: 1.0
ItalicAngle: 0
UnderlinePosition: -99
UnderlineWidth: 49
Ascent: 800
Descent: 200
InvalidEm: 0
UFOAscent: 799.805
UFODescent: -200.195
LayerCount: 2
Layer: 0 0 "Back" 1
Layer: 1 0 "Fore" 0
PreferredKerning: 4
FSType: 0
OS2Version: 0
OS2_WeightWidthSlopeOnly: 0
OS2_UseTypoMetrics: 0
CreationTime: 1429518268
ModificationTime: 1434685072
PfmFamily: 16
TTFWeight: 400
TTFWidth: 5
LineGap: 92
VLineGap: 0
OS2TypoAscent: 800
OS2TypoAOffset: 0
OS2TypoDescent: -200
OS2TypoDOffset: 0
OS2TypoLinegap: 92
OS2WinAscent: 896
OS2WinAOffset: 0
OS2WinDescent: 200
OS2WinDOffset: 0
HheadAscent: 896
HheadAOffset: 0
HheadDescent: -200
HheadDOffset: 0
OS2CapHeight: 0
OS2XHeight: 0
OS2Vendor: 'PfEd'
OS2UnicodeRanges: 00000002.00000000.00000000.00000000
Lookup: 4 0 0 "'abvs' Above Base Substitutions in Sinhala lookup 2" { "'abvs' Above Base Substitutions in Sinhala lookup 2-1"  } ['abvs' ('sinh' <'dflt' > ) ]
Lookup: 1 0 0 "'ordn' Ordinals lookup 1" { "'ordn' Ordinals lookup 1-1"  } ['ordn' ('DFLT' <'dflt' > 'hani' <'dflt' > 'latn' <'dflt' > 'sinh' <'dflt' > ) ]
Lookup: 4 0 1 "'liga' Standard Ligatures lookup 1" { "'liga' Standard Ligatures lookup 1-1"  } ['liga' ('DFLT' <'dflt' > 'hani' <'dflt' > 'latn' <'dflt' > ) ]
Lookup: 258 0 0 "'kern' Horizontal Kerning lookup 0" { "'kern' Horizontal Kerning lookup 0-1" [153,15,0] } ['kern' ('DFLT' <'dflt' > 'hani' <'dflt' > 'latn' <'dflt' > ) ]
MarkAttachClasses: 1
DEI: 91125
KernClass2: 7 7 "'kern' Horizontal Kerning lookup 0-1"
 1 A
 7 T Y P F
 9 f r v w y
 1 L
 3 W V
 0 
 7 W V T Y
 12 period comma
 17 a e s o q d c g u
 1 A
 5 w v t
 15 semicolon colon

StartChar: anusvara
Encoding: -1 -1 0
Width: 1024
VWidth: 893
Flags: M
LayerCount: 2
Back
SplineSet
1220.97070312 486 m 0
 1161.97070312 486 l 0
 1161.97070312 564 l 0
 1161.97070312 732 l 0
 1220.97070312 718 l 0
 1220.97070312 574 l 0
 1220.97070312 486 l 0
EndSplineSet
Fore
EndChar

StartChar: si_NnI
Encoding: -1 -1 1
Width: 1024
VWidth: 893
LayerCount: 2
Back
SplineSet
1055.97070312 498 m 0
 951.970703125 498 l 0
 964.41796875 517.34375 967.970703125 553.9375 967.970703125 576 c 0
 967.970703125 628 988.633789062 704 913.970703125 704 c 0
 836.62890625 704 776.970703125 671.231445312 776.970703125 636 c 0
 776.970703125 577.78125 785.970703125 568 785.970703125 568 c 1
 683.970703125 568 l 1
 667.970703125 588 662.970703125 619.814453125 662.970703125 646 c 0
 662.970703125 769.171875 783.970703125 808 913.970703125 808 c 0
 1038.17285156 808 1079.97070312 711 1079.97070312 586 c 0
 1079.97070312 548.223632812 1066.54589844 507.360351562 1055.97070312 498 c 0
EndSplineSet
Fore
EndChar

StartChar: si_A
Encoding: 0 3461 2
GlifName: uni0D_85
Width: 573
Flags: W
HStem: -4 27<205.486 385.383> 200 29<388.393 447.237> 287 22<189.916 316> 393 40<196.956 288.512>
VStem: 33 80<89.0738 235.039> 316 31.023<309 357.673> 359 29<-215 207 235 377.002> 384 4<207 235> 421.451 23.549<381.434 405.995> 464 62<238.925 337.441>
LayerCount: 2
Back
Fore
SplineSet
428 200 m 0xfdc0
 414.666666667 200 400 202 384 207 c 9
 384 235 l 17
 393 230 403.666666667 229 411 229 c 0
 440.170365761 229 464 249 464 287 c 0
 464 311 460 326 448 345 c 0
 437.325961395 361.900561124 421.450986646 371 421.450986646 398 c 0
 421.450986646 399.934865834 421.681802112 401.93171373 422 404 c 1
 438 418 l 0
 457 422 l 1
 450 418 445 414 445 403 c 0
 445 369 526 354 526 281 c 0
 526 228.79640641 479.320433706 200 428 200 c 0xfdc0
462 424 m 1
 392 393 388 352 388 315 c 2
 388 -215 l 1
 359 -215 l 1
 359 -39 359 137 359 313 c 0xfec0
 359 350 368 379.666666667 386 401 c 0
 401.333333333 418.333333333 419 429.666666667 439 435 c 1
 462 424 l 1
523 51 m 1
 472 17 386 -4 282 -4 c 0
 118 -4 33 62 33 160 c 0
 33 248 94 309 202 309 c 2
 316 309 l 1
 314.512785982 352.872813538 287 393 241 393 c 0
 205 393 196.04296875 375.694335938 188 358 c 0
 183 347 172 331 147 331 c 0
 125 331 106 344.66015625 106 369 c 0
 106 410 154 433 211 433 c 0
 295 433 347.022958637 382 347.022958637 289.999996282 c 0
 347.022958637 289.003232324 347.014753113 288.003211652 347 287 c 1
 252 287 l 2
 130 287 113 200 113 164 c 0
 113 88 161 23 297 23 c 0
 410 23 480 50 523 83 c 1
 523 51 l 1
EndSplineSet
EndChar

StartChar: si_E
Encoding: 4 3473 3
GlifName: uni0D_91
Width: 595
Flags: W
HStem: 0 71<150.041 395.614> 277 25<16.7575 263> 359 36<338.075 436.162> 395 36.5<150.639 234.669>
VStem: 45 37<127.613 229.669> 263.086 32.0605<302 361.086> 283 30<424.683 549.228> 513 32<186.191 352.059>
LayerCount: 2
Back
Fore
SplineSet
513 267 m 0xdd
 513 323.666666667 496 376 471 412 c 1
 456.333007812 379.333007812 426 359 383 359 c 0
 319.844284656 359 283 414 283 480 c 0xeb
 283 530 298 566 325 597 c 1
 386 564 456.96484375 492.2421875 493 430 c 0
 531.783203125 363.01171875 545 315 545 245 c 0
 545 117 459 0 276 0 c 0
 155 0 45 46 45 165 c 0
 45 195.720703125 54.775390625 227.831054688 78 248 c 0
 94.126953125 262.004882812 113 273 139 278 c 5
 172.760742188 290.19921875 213.875 302 251 302 c 6
 263 302 l 5
 263.08203125 304.041015625 263.0859375 306.041015625 263.0859375 308 c 4
 263.0859375 356 231 395 194 395 c 4xdd
 155 395 144 371 138.5 355 c 4
 131.951171875 335.948242188 121.87109375 323 100 323 c 4
 84 323 64 333.368164062 64 359 c 4xed
 64 406 114 431.5 169 431.5 c 4
 257 431.5 295.146484375 363 295.146484375 290 c 4
 295.146484375 286.721679688 295.100585938 280.387695312 295 277 c 5
 231 277 l 6
 186.559570312 277 147.1171875 264.814453125 122 249 c 0
 95 232 82 206.05078125 82 180 c 0
 82 94 189 71 279 71 c 0
 432 71 513 148 513 267 c 0xdd
129 277 m 6
 58 276 32 272.666992188 16 270 c 5
 16 302 l 5
 261 302 l 5
 291 277 l 5
 129 277 l 6
452 440 m 1
 422 486 372 532 334 560 c 1
 322 542 313 518.666666667 313 484 c 0
 313 434.666666667 333 395 390 395 c 0
 414 395 441.763671875 406.140625 452 440 c 1
EndSplineSet
EndChar

StartChar: si_U
Encoding: 3 3467 4
GlifName: uni0D_8B_
Width: 651
Flags: W
HStem: -161 33<257.705 429.935> 271 25<219.062 507> 390 41.5<358.585 461.761>
VStem: 32 77<8.6261 185.37> 574 29<3.92202 69>
LayerCount: 2
Back
Fore
SplineSet
539 271 m 1
 298 271 l 2
 174 271 109 203.63883956 109 110 c 4
 109 -30 216 -128 341 -128 c 4
 468 -128 574 -40 574 69 c 5
 603 69 l 5
 603 -64 480 -161 328 -161 c 4
 177 -161 32 -62 32 99 c 4
 32 210 121 296 264 296 c 2
 507 296 l 1
 504 346 460.752569308 390 408 390 c 0
 380.302185915 390 360.699662251 377.104442714 347 354.5 c 0
 339.454261497 342.04953147 330 328 305 328 c 4
 283 328 267 345.182366328 267 365 c 0
 267 410 313 431.5 376 431.5 c 0
 468.871700649 431.5 539.074783684 370 539.074783684 275.999995706 c 0
 539.074783684 274.341975608 539.048557478 272.675233006 539 271 c 1
EndSplineSet
EndChar

StartChar: si_Ka
Encoding: 6 3482 5
GlifName: uni0D_9A_
Width: 746
Flags: W
HStem: -1 72<139.59 257.82 329.334 448.361> -1 27<505.666 596.496> 73 27<70.1748 107.875> 288 25<214.989 383.323> 368 66<333.021 512.513> 392 41<120.163 188.978>
VStem: 21 26<19.0385 55.9456> 29 77<300.927 379.449> 194.895 30.1055<346 383.641> 281 26<106.78 163> 474 41<98.2673 214.703> 649 52<91.197 241.445>
LayerCount: 2
Back
Fore
SplineSet
106 323 m 0xb5f0
 99 305 84 297 69 297 c 0
 35 297 29 328 29 340 c 0
 29 394.098632812 79.3632281498 433 136 433 c 0xb5f0
 188.347731079 433 225 399 225 350 c 0
 225 349 225 348 225 346 c 1
 284 401 366 434 453 434 c 0
 603 434 701.000000002 328 701 192 c 0
 700.999999999 109.999777824 658 -1 550 -1 c 0
 540 -1 523.333333333 -0.666666666667 504 12 c 1
 506 38 l 1
 515 31 532 26 554 26 c 0x79f0
 606 26 649 80 649 153 c 0
 649 285 534.341514142 368 400 368 c 0
 326.666666667 368 261.333007812 347.333007812 214 304 c 1
 244 312 277.666666667 313 305 313 c 0
 425 313 515 248 515 126 c 0
 515 67.8472233203 482 -1 397 -1 c 0
 351 -1 317.333333333 20.3333333333 296 63 c 1
 278.666666667 21.6666666667 246.021148364 -1 204 -1 c 0
 117 -1 120 73 87 73 c 0
 64.6748046875 73 50 51 47 11 c 1
 21 22 l 1xbaf0
 28.6966338402 91.2697045622 74.2942734931 184.279626053 109 232 c 0
 135 268 163 297.333007812 193 324 c 1
 194 329 194.89453125 339.435546875 194.89453125 345 c 0
 194.89453125 369 183.407917035 392 158 392 c 0
 144 392 122.478515625 384.287109375 116 363 c 0
 109 340 112.653628896 340.109331446 106 323 c 0xb5f0
178 269 m 1
 160.666992188 254.333007812 145 234.666992188 129 212 c 0
 100.333007812 171.333007812 80.6666666667 131.666666667 70 95 c 1
 76 98.3333333333 82.3333333333 100 89 100 c 0
 118 100 142 71 199 71 c 0
 250.182680149 71 281 101.864211954 281 162 c 0
 281 164.208984375 281.041015625 161.3046875 281 163 c 1
 307 163 l 1
 306.963867188 161.6640625 307 163.330078125 307 162 c 0
 307 96.92631064 334 71 392 71 c 0
 454.088867188 71 474 123 474 159 c 0
 474 242 403.87890625 288 301 288 c 0
 244.333007812 288 202.666992188 281 178 269 c 1
EndSplineSet
EndChar

StartChar: si_Ii
Encoding: 2 3466 6
GlifName: uni0D_8A_
Width: 528
Flags: W
HStem: 0 73<150.092 330.785> 403.653 26.6934<419.34 475.966> 414 23<248.774 329.114> 473.653 26.6934<154.34 210.966> 506.341 26.0059<419.643 475.664> 576.341 26.0059<154.643 210.664>
VStem: 31 35<162.048 300.64> 118.307 26.3496<509.859 566.485> 220.65 26.3496<509.859 566.485> 383.307 26.3496<439.859 496.485> 430 52<169.286 321.484> 485.65 26.3496<439.859 496.485>
LayerCount: 2
Back
Fore
SplineSet
409.65625 468.34375 m 0xdff0
 409.65625 447.361328125 426.670898438 430.346679688 447.653320312 430.346679688 c 0
 468.635742188 430.346679688 485.650390625 447.361328125 485.650390625 468.34375 c 0
 485.650390625 489.326171875 468.635742188 506.340820312 447.653320312 506.340820312 c 0
 426.670898438 506.340820312 409.65625 489.326171875 409.65625 468.34375 c 0xdff0
383.306640625 468 m 0
 383.306640625 503.534179688 412.119140625 532.346679688 447.653320312 532.346679688 c 0
 483.1875 532.346679688 512 503.534179688 512 468 c 0
 512 432.465820312 483.1875 403.653320312 447.653320312 403.653320312 c 0
 412.119140625 403.653320312 383.306640625 432.465820312 383.306640625 468 c 0
144.65625 538.34375 m 0
 144.65625 517.361328125 161.670898438 500.346679688 182.653320312 500.346679688 c 0
 203.635742188 500.346679688 220.650390625 517.361328125 220.650390625 538.34375 c 0
 220.650390625 559.326171875 203.635742188 576.340820312 182.653320312 576.340820312 c 0
 161.670898438 576.340820312 144.65625 559.326171875 144.65625 538.34375 c 0
118.306640625 538 m 0
 118.306640625 573.534179688 147.119140625 602.346679688 182.653320312 602.346679688 c 0
 218.1875 602.346679688 247 573.534179688 247 538 c 0
 247 502.465820312 218.1875 473.653320312 182.653320312 473.653320312 c 0
 147.119140625 473.653320312 118.306640625 502.465820312 118.306640625 538 c 0
170 422 m 0
 223.263083971 449.696803665 250.105838186 465.264791571 308 517 c 0
 334.25898759 540.465478272 351.777837553 570.798207537 368.230041743 592.999999168 c 4
 381.225035176 610.536381109 393.554565227 623 409 623 c 0
 425 623 432 616.333007812 432 605 c 0
 432 585 408.666666667 555.666666667 360 515 c 0
 327.333333333 487.666666667 289.666666667 461.333333333 247 436 c 1
 252 437 253.262695312 437 262 437 c 0xbff0
 333 437 388 413 429.5 366.5 c 0
 465.350590935 326.33006076 482 281.003971989 482 225 c 0
 482 102 383.523302632 0 248 0 c 0
 123.953919804 0 31 89.1821923439 31 213 c 0
 31 322.52211473 95.4624211491 380.154341698 170 422 c 0
66 237 m 0
 66 143.671016059 131.981483069 73 240 73 c 0
 345 73 430 149 430 254 c 0
 430 356 355.594726562 414 264 414 c 0
 166.78125 414 66 339.359738008 66 237 c 0
EndSplineSet
EndChar

StartChar: si_Os
Encoding: 5 3476 7
GlifName: uni0D_94
Width: 636
Flags: W
HStem: 0 70<131.394 272.429 339.859 473.334> 224 29<238.559 353.314> 289 27<288.575 353.616> 410 24<118.455 166.158 290.605 351.086> 555 23<208.36 374.739>
VStem: 30 31<166.2 328.311> 172 27<290.656 402.998> 245 29<329.438 396.012> 293 24<103.887 167> 389 29<285.479 359.953> 554 36<182.11 371.953>
LayerCount: 2
Back
Fore
SplineSet
274 363 m 4
 274 337 295 316 321 316 c 4
 347 316 368 337 368 363 c 4
 368 389 347 410 321 410 c 4
 295 410 274 389 274 363 c 4
388 331 m 1
 382 318 358.65625 289 318 289 c 0
 271.278320312 289 245 324.079101562 245 360 c 256
 245 402 277 434 322 434 c 0
 381 434 418 389 418 330 c 0
 418 268 367 224 296 224 c 0
 225.25445084 224 172 267 172 339 c 0
 172 344.219726562 172.27544052 362.934877611 172.27544052 371.999999557 c 0
 172.27544052 392 168.197801988 406 145 406 c 0
 94 406 61 327 61 254 c 0
 61 149.666457941 116 70 199 70 c 0
 273 70 293 107.666992188 293 141 c 2
 293 167 l 1
 317 167 l 1
 317 140 l 2
 317 95.748046875 356 71 410 71 c 0
 505.558649722 71 554 181.873239616 554 286 c 0
 554 433.479491635 458 555 298 555 c 0
 199 555 139 525 92 466 c 1
 62 466 l 1
 107 531 175 578 302 578 c 0
 486 578 590 431.114542606 590 254 c 0
 590 126.500578052 543 0 406 0 c 0
 365 0 321 16 305 55 c 1
 283 15 246 0 196 0 c 0
 78 0 30 127 30 224 c 0
 30 332 74 431.5 148 431.5 c 0
 167.006835938 431.5 173 428 180 423 c 0
 190.609375 415.421875 198.873046875 401 198.873046875 371 c 0
 198.873046875 357 199 340.014648438 199 337 c 0
 199 284 240 253 295 253 c 0
 348 253 389 281 389 326 c 0
 389 327 389 329 388 331 c 1
EndSplineSet
EndChar

StartChar: si_Tta
Encoding: 11 3495 8
GlifName: uni0D_A_7
Width: 603
Flags: W
HStem: -1.15399 71.9065<162.868 390.485> 365.352 26.0267<164.677 305.633> 553.085 23.9947<193.045 346.963>
VStem: 31.596 34.308<156.163 284.916> 523.085 33.9212<205.852 374.742>
LayerCount: 2
Back
Fore
SplineSet
65.9040652651 217.756690347 m 0
 65.9040652651 115.897355797 175.908160921 70.7524940739 276.179776643 70.7524940739 c 0
 418.412454023 70.7524940739 523.085468421 148.526365796 523.085468421 295.660472353 c 0
 523.085468421 431.780189984 415.576556737 553.085177402 275.440057829 553.085177402 c 0
 194.707908634 553.085177402 132.781765602 525.005127203 90 470 c 9
 57 470 l 17
 103.927953012 539.371756626 176.649876667 577.079858394 273.087127664 577.079858394 c 0
 446.243363388 577.079858394 557.006697374 433.236971394 557.006697374 271.182978806 c 0
 557.006697374 115.25051458 447.244413075 -1.15398720145 285.242387952 -1.15398720145 c 0
 132.917850402 -1.15398720145 31.5960301257 80.6392374287 31.5960301257 207.869486361 c 0
 31.5960301257 322.618280415 126.170095138 391.378618529 232.000003444 391.378618529 c 0
 259 391.378618529 291.655125054 386.085841646 321 375 c 9
 321 346 l 17
 293.88667132 358.911108895 266 365.351950183 233.999997455 365.351950183 c 0
 148.491642868 365.351950183 65.9040652651 314.122642713 65.9040652651 217.756690347 c 0
EndSplineSet
EndChar

StartChar: si_I
Encoding: 1 3465 9
GlifName: uni0D_89
Width: 593
Flags: W
HStem: -160.272 22.8648<248.913 348.919> -14.6465 28.0713<249 337.071> 54 26.9805<153.59 299.028> 104.979 28.0215<253.931 322.608> 231 28.6836<253.578 322.745> 357.365 74.8647<168.676 393.085>
VStem: 32.7693 40.651<140.699 275.285> 172.568 62.4322<-128.639 -40.9783> 208 30<147.931 216.488> 338 38<125.984 219.631> 375.053 63.9665<-122.792 -38.7699> 506 38.0727<109.529 253.779>
LayerCount: 2
Back
Fore
SplineSet
273.107421875 13.4248046875 m 0xff30
 289.881835938 13.4248046875 306.879979999 11.3077791959 324.407906495 11.3077791959 c 0
 423.445479405 11.3077791959 506 72.2427249302 506 179 c 0
 506 292.451180536 404.848523881 357.365080788 285.138234493 357.365080788 c 0
 174.761412308 357.365080788 73.420326121 308.982448025 73.420326121 204.134968762 c 0
 73.420326121 133.530159124 136.393554688 80.98046875 222.573242188 80.98046875 c 0
 276 80.98046875 317 96 333 120 c 1
 318 108 299.454101562 104.978515625 285.064453125 104.978515625 c 4
 244 104.978515625 208 138.5703125 208 179 c 0
 208 225.263671875 242 259.68359375 286.35546875 259.68359375 c 0
 343.78515625 259.68359375 376 221.615234375 376 170 c 0xfed0
 376 90 310 54 220 54 c 0
 113 54 32.769301342 116.842503605 32.769301342 220.978179218 c 0
 32.769301342 356.900041772 140.744852569 432.229789777 284.186584566 432.229789777 c 0
 443.73633693 432.229789777 544.072655356 353.230064025 544.072655356 198.289822617 c 0
 544.072655356 92.3992805878 472.804973932 9.9053684654 384 -6 c 1
 417.360050834 -12.0654637881 439.019305478 -35.5646106219 439.019305478 -74.6171329825 c 0
 439.019305478 -134.43844808 364.215441002 -160.272357038 298.362581423 -160.272357038 c 0
 236.041211731 -160.272357038 172.567829085 -139.055521608 172.567829085 -75.6591555653 c 0
 172.567829085 -50.1902726369 190.396707259 -38.4572252022 206.999999554 -38.4572252022 c 0
 222 -38.4572252022 235 -47.772668172 235 -65 c 0
 235 -70.548340286 231.33117885 -81.8987817032 231.33117885 -93.9999994603 c 0
 231.33117885 -114 242.210661318 -137.40759163 300.488905387 -137.40759163 c 0
 339.383175946 -137.40759163 375.052783758 -120.936614414 375.052783758 -83.377550246 c 0
 375.052783758 -40.6169352357 334.405273438 -14.646484375 267.46875 -14.646484375 c 0
 258.713867188 -14.646484375 258.543945312 -15.0908203125 249 -16 c 1
 249 12 l 1
 260.678710938 12.9736328125 262.404296875 13.4248046875 273.107421875 13.4248046875 c 0xff30
288 231 m 0
 260.409179688 231 238 208.654296875 238 182 c 0
 238 154.345703125 261.333007812 133 288 133 c 0
 315.590820312 133 338 155.345703125 338 182 c 0
 338 209.654296875 314.666992188 231 288 231 c 0
EndSplineSet
EndChar

StartChar: si_Na
Encoding: 13 3505 10
GlifName: uni0D_B_1
Width: 806
Flags: W
HStem: -1.22122 27.5682<559.984 654.223> -1.12219 73.5756<142.153 386.52> 284 24.102<271.739 394.102> 370.322 62.4564<392.293 556.559> 384.552 46.4482<139.019 212.636>
VStem: 55.1416 78.6055<307.696 379.695> 222.818 30.2031<317.164 368.129> 453.645 44.5226<127.762 240.069> 704 56<83.004 238.251>
LayerCount: 2
Back
Fore
SplineSet
266 295 m 1xb780
 291.868777723 304.341503066 317.103110119 308.102003375 345.043984241 308.102003375 c 0
 428.954738746 308.102003375 498.167706599 248.943565796 498.167706599 168.852729339 c 0
 498.167706599 52.8253283098 398.034743185 -1.12218963832 276.065197429 -1.12218963832 c 0
 150.102540557 -1.12218963832 67.0808080808 40.5852069078 27 124 c 1
 40.7929072222 117.80318661 52.6277304998 115.127928182 63 115.127928182 c 0
 124 115.127928182 132 208 214 285 c 1
 221 296 222.818359375 309.123046875 222.818359375 322 c 0
 222.818359375 356 208 384.551757812 174.461914062 384.551757812 c 0
 145 384.551757812 137 365 133.747070312 345 c 0
 131.163212277 329.113655791 125.893554688 304 94 304 c 0
 70 304 55.1416015625 322 55.1416015625 348 c 0
 55.1416015625 384 89.0173697483 431 154 431 c 0x6f80
 219.024722972 431 253.021412916 387 253.021412916 320.000003596 c 0
 253.021412916 319.004857764 253.014776925 318.004830877 253 317 c 1
 303.120666674 374.7809841 400.63630409 432.778158251 505.999705561 432.778158251 c 0
 646 432.778158251 760 335.012578119 760 183 c 0
 760 62.6098238798 687 -1.2212249427 613.000002085 -1.2212249427 c 0
 588.31102476 -1.2212249427 563.69220406 6.1181390751 542 21 c 1
 555 43 l 1
 573.124113785 31.705262424 592.007025006 26.3469673742 609.999998276 26.3469673742 c 0
 661 26.3469673742 704 70.1055097822 704 149 c 0
 704 293 570 370.321757521 448.000003924 370.321757521 c 0
 375 370.321757521 309.728660757 344.88762706 266 295 c 1xb780
338 284 m 0
 160 284 180 144 107 102 c 1
 153.257237239 81.9872621893 205.412698335 72.4533905482 263.508417596 72.4533905482 c 0
 374 72.4533905482 453.645120832 110 453.645120832 189.999995741 c 0
 453.645120832 246 399.033203125 284 338 284 c 0
EndSplineSet
EndChar

StartChar: si_Ca
Encoding: 10 3488 11
GlifName: uni0D_A_0
Width: 597
Flags: W
HStem: 3 71<146.041 390.748> 280 25<-8.22732 264> 398 36.5<146.289 237.238> 556 24<198.6 351.599>
VStem: 41 37<130.613 232.669> 60 74.5<329.522 389.563> 264.086 32.0605<305 366.922> 518 34<209.865 383.435>
LayerCount: 2
Back
Fore
SplineSet
296 280 m 1xf7
 227 280 l 2
 182.559570312 280 143.117154884 267.814504927 118 252 c 0
 91 235 78 209.05078125 78 183 c 0
 78 97 185 74 275 74 c 4
 428 74 518 161 518 303 c 0
 518 445 414.498046875 556 280 556 c 0
 200.666992188 556 137.666992188 527.666992188 93 473 c 1
 61 473 l 1
 109.666992188 543 182 580 280 580 c 0
 440.151367188 580 552 446 552 277 c 0
 552 117 455 3 272 3 c 0
 151 3 41 49 41 168 c 0xfb
 41 198.720703125 50.7752155543 230.831256284 74 251 c 0
 90.126953125 265.004882812 109 276 135 281 c 1
 168.760742188 293.19921875 209.875 305 247 305 c 2
 264 305 l 1
 264.08203125 307.041015625 264.0859375 309.041015625 264.0859375 311 c 0
 264.0859375 365 230 398 193 398 c 0
 148 398 139.999839554 374.000055152 134.5 358 c 0
 127.951171875 338.948242188 117.87109375 326 96 326 c 0
 80 326 60 336.368164062 60 362 c 0
 60 409 110 434.5 165 434.5 c 0
 253 434.5 296.146484375 379 296.146484375 293 c 0
 296.146484375 289.721679688 296.100585938 283.387695312 296 280 c 1xf7
125 280 m 2
 54 280 7 275.666992188 -9 273 c 1
 -9 305 l 1
 262 305 l 1
 292 280 l 1
 125 280 l 2
EndSplineSet
EndChar

StartChar: si_Va
Encoding: 15 3520 12
GlifName: uni0D_C_0
Width: 597
Flags: W
HStem: 0 71<139.375 385.923> 280 24<135.303 260> 395 36.5<142.289 233.238> 553 24<194.6 347.599>
VStem: 33 35<128.968 231.998> 56 74.5<326.522 386.562> 260.086 32.0601<304 363.922> 514 34<206.865 380.435>
LayerCount: 2
Back
Fore
SplineSet
292 280 m 1xf7
 202 280 l 2
 128 280 68 245.215820312 68 180 c 0
 68 94 180 71 270 71 c 0
 423 71 514 158 514 300 c 0
 514 442 410.498046875 553 276 553 c 0
 196.666992188 553 133.666992188 524.666992188 89 470 c 1
 57 470 l 1
 105.666666667 540 178 577 276 577 c 0
 436.151392369 577 548 443 548 274 c 0
 548 114 450 0 267 0 c 0
 146 0 33 46 33 165 c 0xfb
 33 250 98 304 199 304 c 2
 260 304 l 1
 260.08203125 306.041015625 260.0859375 306.041015625 260.0859375 308 c 0
 260.0859375 362 226 395 189 395 c 0
 144 395 136 371 130.5 355 c 0
 123.950844566 335.947911466 113.871196443 323 92 323 c 0
 76 323 56 333.368164062 56 359 c 0
 56 406 106 431.5 161 431.5 c 0
 249 431.5 292.146076529 376 292.146076529 290.0000267 c 0
 292.146076529 286.721575577 292.100390271 283.38817163 292 280 c 1xf7
EndSplineSet
EndChar

StartChar: si_Pa
Encoding: 14 3508 13
GlifName: uni0D_B_4
Width: 616
Flags: W
HStem: 0 71<167.441 436.874> 301.718 25.2104<137.183 243.787 353.861 480.514> 395.274 38.3514<146.88 230.006> 404.638 28.4804<382.533 483.336>
VStem: 31.3314 37.6686<145.617 254.663> 55.3252 83.3285<333.165 389.37> 505.479 35.54<315.441 386.529> 540 34.0059<151.063 258.063>
LayerCount: 2
Back
Fore
SplineSet
158.189212207 433.625654084 m 4xe4
 245.215313499 433.625654084 288.153221006 384.708100086 271 298 c 1
 253.180664062 300.375976562 218.23046875 301.717773438 217 301.717773438 c 0
 139.720703125 301.717773438 69 275.738098097 69 201 c 0
 69 106.583973361 193 71 307 71 c 0
 413.550560931 71 540 110 540 205 c 0xe9
 540 277.999460492 472 303.612307156 394.000002487 303.612307156 c 0
 370.819078063 303.612307156 346.926878013 301.168523275 324 297 c 1
 308.802397239 383.119748982 354.507050949 433.118522656 438.844851469 433.118522656 c 0
 505 433.118522656 541.018818118 392.966132064 541.018818118 354.00000109 c 0xd2
 541.018818118 334 532.547911667 316.666882281 514 303 c 1
 554.33230994 279.472819202 574.005875264 240.742748716 574.005875264 186.451529958 c 0
 574.005875264 55.5619188946 447.644682871 -7.1054273576e-15 307 0 c 0
 158.589562849 0 31.3313942639 45.9203100819 31.3313942639 183.554236057 c 0xd9
 31.3313942639 274.623686336 99.2296726839 326.928127469 206.999992832 326.928127469 c 0
 220 326.928127469 231.208483236 326.289067581 244 325 c 1
 249.377912301 369.636672144 222.520061147 395.274253688 188.000000927 395.274253688 c 0
 155.970149562 395.274253688 143.560777761 378.802322884 138.653731877 360.000000482 c 0
 135 346 122.345703125 328.073242188 94 328.073242188 c 0
 75 328.073242188 55.3251953125 340 55.3251953125 365 c 0
 55.3251953125 409 103 433.625654084 158.189212207 433.625654084 c 4xe4
489 315 m 1
 500.332281081 325.70270991 505.478854717 338.485512262 505.478854717 350.99999917 c 0
 505.478854717 380 479 404.638085784 432.00000156 404.638085784 c 0xd2
 385.822677723 404.638085784 346.799736317 376.841898487 354 325 c 1
 370.954790497 327.055126121 387.344972512 328.097600692 402.999995377 328.097600692 c 0
 436 328.097600692 464.459880481 323.7643284 489 315 c 1
EndSplineSet
EndChar

StartChar: si_Gha
Encoding: 9 3485 14
GlifName: uni0D_9D_
Width: 677
Flags: W
HStem: -1 72<136.372 244.886 417.471 546.621> 171 29<293.104 369.252> 276 32<5 143.684> 283 25<5.77848 281 382 443.783> 291 25<382.511 523.194> 395 36.5<168.639 255.214 414.547 524.635>
VStem: 51 38<119.848 228.046> 242 30<74.1548 149.615> 281 32<308 364.225> 391 29<76.5521 149.082> 540 39<306.344 379.751> 593 35<121.66 234.924>
LayerCount: 2
Back
Fore
SplineSet
187 431.5 m 0xd7f0
 280.457574118 431.5 315.410061366 364.169930436 313 283 c 1
 216 283 l 2xd7f0
 196.594246526 283 174.373167804 278.307791251 154.000001239 268.776113625 c 0
 118.731018717 252.275361493 89 221.271320687 89 175 c 0
 89 116.176395544 142 71 212 71 c 0
 228 71 241.666992188 72.6669921875 245 76 c 1
 243 86 242 98 242 106 c 0
 242 180 295 200 332 200 c 0
 365 200 420 180 420 108 c 0
 420 101 419 87 417 79 c 1
 421.42388011 75.6679341213 439.705037723 71 471 71 c 0
 540 71 593 113 593 178 c 0
 593 248 541 291 448 291 c 0xcff0
 412 291 386 289 353 282 c 1
 348.546502504 370.95275263 398.528132471 432 476 432 c 0
 530 432 579 408 579 350 c 0
 579 328.666992188 565 306 550 297 c 1
 597.333333333 273.666666667 628 221.08203125 628 166 c 0
 628 58 555.929102634 0 464 0 c 0
 440 0 412.666666667 4 382 12 c 1
 379.333333333 17.3333333333 378 23.3333333333 378 30 c 0
 378 64 391 78 391 108 c 0
 391 142 367.440429688 171 332 171 c 0
 306 171 272 153 272 106 c 0
 272 71 281 69 281 35 c 256
 281 27.6669921875 280 17 277 11 c 1
 246 2 217.666666667 -1 199 -1 c 0
 108.173759358 -1 51 76 51 154 c 0
 51 226 92 269 144 285 c 1
 177.760742188 297.19921875 231.875 308 269 308 c 2
 281 308 l 1
 283.016768589 358.179123218 249.839964234 395 212 395 c 0
 173 395 162 371 156.5 355 c 0
 149.951171875 335.948242188 139.87109375 323 118 323 c 0
 102 323 82 333.368164062 82 359 c 0
 82 406 132 431.5 187 431.5 c 0xd7f0
5 308 m 1xe7f0
 279 308 l 1
 309 283 l 1
 147 283 l 2xd7f0
 76 282 21 278.666992188 5 276 c 1
 5 308 l 1xe7f0
382 310 m 1
 395 314 419 316 445 316 c 0xcff0
 479 316 510 312 525 306 c 1
 537 319 540 334 540 346 c 256
 540 379 506.477539062 393 470 393 c 0
 418 393 386.666666667 364.666666667 382 310 c 1
EndSplineSet
EndChar

StartChar: si_Ga
Encoding: 8 3484 15
GlifName: uni0D_9C_
Width: 636
Flags: W
HStem: -2 73<134.455 283.561> -1 25<338 431.819> 217 24<247.281 300.043> 371 60.5<329.024 471.731> 408.45 23.0498<169.773 233>
VStem: 34 35<150.52 304.409> 216 25<192 209.717> 318 34<109.226 204.325> 543 43<120.217 292.903>
LayerCount: 2
Back
Fore
SplineSet
233 408 m 1xaf80
 229.64453125 408.284179688 225.310546875 408.450195312 222 408.450195312 c 0
 136 408.450195312 69 332 69 230 c 0
 69 147 117.309455467 71 206 71 c 0xaf80
 265 71 318 98.6416015625 318 158 c 0
 318 196 298.453333284 217 267 217 c 0
 259.666666667 217 250 215 243 210 c 1
 242 204 241 195.333333333 241 192 c 1
 216 192 l 1
 226.196066844 316.90181884 288 431.5 410 431.5 c 0
 522 431.5 586 332 586 217 c 0
 586 95 500.052817527 -1 369 -1 c 0
 359 -1 348.666666667 -0.333333333333 338 1 c 1
 338 26 l 1
 346 25 354 24 362 24 c 0
 469 24 543 100 543 200 c 0
 543 301 484 371 393 371 c 0x7780
 316.349609375 371 263 313 247 236 c 1
 255 240 263.333333333 241 270 241 c 0
 318 241 352 202 352 136 c 0
 352 56 295 -2 208 -2 c 0
 97 -2 34 96 34 207 c 0
 34 330 109 431.5 220 431.5 c 0
 223.953128016 431.5 228.954101562 431.25 233 431 c 1
 233 408 l 1xaf80
EndSplineSet
EndChar

StartChar: si_Kha
Encoding: 7 3483 16
GlifName: uni0D_9B_
Width: 630
Flags: W
HStem: -1 29.7402<104.766 168.093> 0 67<392.124 476.273> 54 62<309.19 369.5> 115.26 29.7402<104.101 167.851> 320 76<145.394 332> 576 25<211.047 372.744>
VStem: 32 31<102.523 226.439> 179.26 30.7402<39.4584 104.134> 367 46<174.369 288.495> 546 38<182.817 404.042>
LayerCount: 2
Back
Fore
SplineSet
92.740234375 72 m 4x9fc0
 92.740234375 48.3095703125 112.309570312 28.740234375 136 28.740234375 c 4
 159.690429688 28.740234375 179.259765625 48.3095703125 179.259765625 72 c 4
 179.259765625 95.6904296875 159.690429688 115.259765625 136 115.259765625 c 4
 112.309570312 115.259765625 92.740234375 95.6904296875 92.740234375 72 c 4x9fc0
72 101 m 5
 80 129 108 145 135 145 c 4x1fc0
 180.808201089 145 210 116 210 72 c 4
 210 37 180 -1 141 -1 c 4
 56 -1 32 108 32 183 c 4
 32 322 123.838867188 396 240 396 c 4
 333 396 413 343.14453125 413 258 c 4
 413 201 385 153 346 115 c 5
 349.333333333 115.666666667 352.333333333 116 355 116 c 4xafc0
 384 116 390 67 434 67 c 4
 500 67 546 198 546 301 c 4
 546 467 445 576 294 576 c 4
 205 576 139 542.666992188 97 470 c 5
 64 470 l 5
 108.666666667 553.333333333 186 601 298 601 c 4
 464 601 584 473 584 286 c 4
 584 150 524 0 416 0 c 4x4fc0
 352 0 348 54 321 54 c 260x2fc0
 308 54 282 34 240 -21 c 5
 204 -18 l 5
 217.333007812 -4.6669921875 246.086001436 34.0256170965 288 84 c 4
 340 146 367 194 367 232 c 4
 367 286 328 320 236 320 c 4
 155.867967399 320 63 272 63 156 c 4
 63 144 66 118 72 101 c 5
EndSplineSet
EndChar

StartChar: si_Dda
Encoding: 12 3497 17
GlifName: uni0D_A_9
Width: 647
Flags: W
HStem: 0 71<124.979 272.289 352.683 492.381> 288 27<15 125 153.105 261> 391.268 40.8998<156.839 237.617> 556.09 25.9301<215.136 381.468>
VStem: 45.8805 37.511<116.693 232.546> 299 27<106.668 178> 562.143 35.8443<167.396 374.342>
LayerCount: 2
Back
Fore
SplineSet
76.2109375 374.122070312 m 0
 76.2109375 414 123.100792732 432.167358968 165.27885421 432.167358968 c 0
 249.407348514 432.167358968 293.626701618 373.979249619 295 288 c 1
 220 288 l 2
 126.957367049 288 83.3915037787 230 83.3915037787 174.000001556 c 0
 83.3915037787 121.64183372 123.262203778 71 198 71 c 0
 247.046364159 71 299 95.1647551294 299 143 c 2
 299 178 l 1
 326 178 l 1
 326 143 l 2
 326 97.0862774658 373.775105866 71 424 71 c 0
 520.489182971 71 562.143099583 167.485004935 562.143099583 273.218225728 c 0
 562.143099583 428 456 556.09016266 298.464776119 556.09016266 c 0
 217.965924033 556.09016266 153.202703235 524.901888832 106 468 c 1
 73 468 l 1
 127.257569341 545.9335996 209.737496069 582.020255488 304.118964686 582.020255488 c 0
 478.635692634 582.020255488 597.987383913 444 597.987383913 258.221926564 c 0
 597.987383913 126.285711076 547.007371766 -0.0251311659364 427.655553183 -0.0251311659364 c 0
 363.027670828 -0.0251311659364 334.630436238 28.5207489381 313 59 c 1
 283.406198924 21.686076905 250 0 199 0 c 0
 97.9838045205 0 45.8804869702 81.1902905721 45.8804869702 161.999997835 c 0
 45.8804869702 212 71.0486818679 264.197947883 125 288 c 1
 15 288 l 1
 15 315 l 1
 261 315 l 1
 258.164478188 357.532827182 228 391.267578125 198 391.267578125 c 0
 180.364257812 391.267578125 165.118202841 387.385986725 151 363 c 0
 140 344 126.646484375 339.263671875 113 339.263671875 c 0
 93 339.263671875 76.2109375 353 76.2109375 374.122070312 c 0
EndSplineSet
EndChar

StartChar: si_Ha
Encoding: 16 3524 18
GlifName: uni0D_C_4
Width: 653
Flags: W
HStem: -1.30331 27.5084<352 459.125> -0.762226 72.7622<118.584 291.672> 212.412 24.7581<271.316 319.044> 280.021 23.332<136.602 205.514> 362 70.0093<358.596 489.218> 383.056 48.9775<109.558 183.814>
VStem: 32.9551 36.7952<120.972 227.466> 206 33<303 356.706> 239 22<188.818 197.852> 330.111 36.0512<111.65 206.799> 557.148 47.8706<117.773 286.729>
LayerCount: 2
Back
Fore
SplineSet
261 182 m 1x76e0
 239 192 l 1
 248 317 329.087366383 432.009345794 430.301685736 432.009345794 c 0
 542.17352523 432.009345794 605.018348624 328.650705644 605.018348624 210.961535223 c 0
 605.018348624 92.0044933398 516 -1.30330825989 392.999994701 -1.30330825989 c 0
 379.685193513 -1.30330825989 365.993045889 -0.266479263683 352 2 c 1
 352 29 l 1
 364.328223026 27.0869998752 376.35311101 26.2051161814 388.000004424 26.2051161814 c 0xbae0
 487 26.2051161814 557.147781594 93.4058364165 557.147781594 192.821331899 c 0
 557.147781594 288.168710145 504.79384916 362 414 362 c 0
 340.666666667 362 293 317.666666667 271 229 c 1
 280.834632615 234.531980846 290.634007167 237.170373002 300.000001328 237.170373002 c 0
 338 237.170373002 366.162675468 199.139276778 366.162675468 145.349815118 c 0
 366.162675468 52.9926813027 295.501309239 -0.762226007727 201.033156494 -0.762226007727 c 0
 103.482897226 -0.762226007727 32.955072243 61.0614182824 32.955072243 155.113004833 c 0
 32.955072243 246 100 303.35267071 194.00000399 303.35267071 c 0
 197.957701716 303.35267071 201.958859853 303.223164665 206 303 c 1x7b60
 206 345.316862256 182 383.05591496 144.456595979 383.05591496 c 0
 123.504556884 383.05591496 111.797734694 370.856405871 106 355.69271051 c 0
 100 340 86.6728515625 327.240234375 65.802734375 327.240234375 c 0
 46 327.240234375 33.0236931219 341 33.0236931219 364.000000718 c 0
 33.0236931219 394.207779183 61.7023205405 432.033407495 118.454977226 432.033407495 c 0
 197.349468601 432.033407495 237.805156657 360.444190658 239 278 c 1
 227.31985131 279.352438269 215.953374632 280.020701546 204.99999651 280.020701546 c 0
 125 280.020701546 69.7502819416 245.325077118 69.7502819416 175.35945891 c 0
 69.7502819416 105.728297678 133.657431312 72 208 72 c 0
 274.436769939 72 330.111487969 100.488408082 330.111487969 164.323187208 c 0
 330.111487969 194.870510204 315 212.412279499 294.999999474 212.412279499 c 0
 281.517899979 212.412279499 267.753468094 203.010789627 261 182 c 1x76e0
EndSplineSet
EndChar

StartChar: si_DIi
Encoding: 17 -1 19
GlifName: si_D_I_i
Width: 647
Flags: W
HStem: 0 71<124.316 272.26 352.663 495.599> 288 27<15 127 155.35 261> 391.268 40.8998<156.839 236.43> 475 24<482 505.269> 611 59<148.279 478.079>
VStem: 46 37<117.867 230.382> 77 41<523.195 586.765> 299 27<106.668 178> 383 33<515.352 590.855> 526 35<512.871 593.149> 562 36<160.289 363.51>
LayerCount: 2
Back
Fore
SplineSet
261 315 m 1xfde0
 258.1640625 357.533203125 228 391.267578125 198 391.267578125 c 0
 180.364257812 391.267578125 165.118202841 387.385986725 151 363 c 0
 140 344 126.646484375 339.263671875 113 339.263671875 c 0
 93 339.263671875 76.2109375 353 76.2109375 374.122070312 c 0
 76.2109375 414 123.100792732 432.167358968 165.27885421 432.167358968 c 0
 249.407348514 432.167358968 295 368 295 288 c 1
 224 288 l 2
 136 288 83 234.039210145 83 176 c 0xfde0
 83 116.447992456 128 71 198 71 c 0
 247.046364158 71 299 95.1647551302 299 143 c 2
 299 178 l 1
 326 178 l 1
 326 143 l 2
 326 97.1765651076 373.803857399 71 424 71 c 0
 527 71 562 171.683846473 562 267 c 0
 562 443 455.06537025 468.008209131 324 476 c 0
 242 481 77 461 77 564 c 0xfbe0
 77 639 168 670 307 670 c 0
 373.852816864 670 435.943207256 664.04696691 481.999996869 647.144400779 c 4
 530.32636825 629.408911724 561 599.618160815 561 552 c 0
 561 511 525.029153347 475 482 475 c 1
 553.2159841 441.765874087 598 366.379933741 598 255 c 0
 598 140.589447825 552 0 431 0 c 0
 369.285699916 0 344.342973794 21.3884314468 313 59 c 1
 282.333333333 20.3333333333 246 0 198 0 c 0
 111.406083101 0 46 72.5786159156 46 158 c 0
 46 217.61397783 77 266 127 288 c 1
 15 288 l 1
 15 315 l 1
 261 315 l 1xfde0
416 553 m 0
 416 522.541751994 441.594773551 499 472 499 c 0
 501.358525628 499 526 520.329065686 526 554 c 0
 526 582.547297586 503.978515374 607 471 607 c 0
 441.102627742 607 416 582.60301559 416 553 c 0
412 494 m 1
 394 506 383 528.666992188 383 554 c 0
 383 572.666992188 390 590 404 606 c 1
 370.666992188 609.333007812 331.333333333 611 294 611 c 0
 232 611 118 607.885828164 118 556 c 0xfbe0
 118 507 199 504 241 504 c 0
 283.011903075 504 361 503 412 494 c 1
EndSplineSet
EndChar
